# xmcd CD database file
#
# Track frame offsets:
#	150
#	10742
#	28678
#	42283
#	58839
#	75333
#	95813
#	112110
#	130588
#	148473
#	170091
#
# Disc length: 2520 seconds
#
# Revision: 0
# Processed by: cddbd v1.5.1PL2 Copyright (c) Steve Scherf et al.
# Submitted via: CDex 1.51
#
DISCID=9809d60b
DTITLE=DJ KIYO(CL.MASSIVE) - R&B JOINT(NIGHT TIME-B)
DYEAR=1997
DGENRE=R&B
TTITLE0=HOW DEEP IS YOU LOVE - LUTHER VANDROSS
TTITLE1=SHOW ME - HOWARD HEWETT
TTITLE2=THIS IS YOUR NIGHT - GIORGE PETTUS
TTITLE3=MORE OF THE NIGHT - WHISPERS
TTITLE4=JUST IN TIME - CONTROLLERS
TTITLE5=TELL ME IF YOU STILL CARE - S.O.S.BAND
TTITLE6=I'M COMING HOME - NEW EDITION
TTITLE7=LOVE MAKES THING HAPPEN - PEBBLES
TTITLE8=ROCK WITCHA - BOBBY BROWN
TTITLE9=YOU MAKE ME FEEL BRAND NEW - BABYFACE
TTITLE10=THE FIRST TIME - SURFACE
EXTD=YEAR: 1997
EXTT0=
EXTT1=
EXTT2=
EXTT3=
EXTT4=
EXTT5=
EXTT6=
EXTT7=
EXTT8=
EXTT9=
EXTT10=
PLAYORDER=
